<?xml version="1.0" standalone="no"?>
<!DOCTYPE svg PUBLIC "-//W3C//DTD SVG 20010904//EN"
 "http://www.w3.org/TR/2001/REC-SVG-20010904/DTD/svg10.dtd">
<svg version="1.0" xmlns="http://www.w3.org/2000/svg"
 width="1000.000000pt" height="1000.000000pt" viewBox="0 0 1000.000000 1000.000000"
 preserveAspectRatio="xMidYMid meet">

<g transform="translate(0.000000,1000.000000) scale(0.100000,-0.100000)"
fill="#000000" stroke="none">
<path d="M0 5000 l0 -5000 5000 0 5000 0 0 5000 0 5000 -5000 0 -5000 0 0
-5000z m8440 1010 l0 -3410 -3410 0 -3410 0 0 3410 0 3410 3410 0 3410 0 0
-3410z m-3379 -3790 c34 -10 119 -76 119 -93 0 -4 -19 11 -42 33 -50 48 -71
55 -159 55 -53 0 -72 -5 -102 -25 -51 -34 -86 -87 -93 -142 -15 -112 43 -202
149 -233 52 -15 62 -15 110 -1 33 10 69 30 95 54 23 21 42 36 42 32 0 -3 -17
-22 -37 -41 -39 -36 -110 -69 -151 -69 -49 0 -123 33 -162 72 -54 55 -72 126
-53 219 8 40 98 135 134 142 45 8 114 7 150 -3z m-101 -205 c0 -78 -2 -85 -20
-85 -18 0 -20 7 -20 85 0 78 2 85 20 85 18 0 20 -7 20 -85z m100 -1 c0 -83 -1
-85 -22 -82 -21 3 -23 9 -26 72 -4 82 1 96 28 96 19 0 20 -6 20 -86z m-820 48
c0 -31 10 -32 61 -7 27 14 51 25 54 25 3 0 5 -29 5 -65 0 -73 -5 -77 -58 -45
-41 25 -62 25 -62 0 0 -11 -4 -20 -10 -20 -6 0 -10 28 -10 65 0 37 4 65 10 65
6 0 10 -8 10 -18z m1445 -7 c50 -31 55 -31 55 0 0 14 5 25 10 25 6 0 10 -28
10 -65 0 -37 -4 -65 -10 -65 -5 0 -10 9 -10 20 0 25 -21 25 -62 0 -18 -11 -36
-20 -40 -20 -5 0 -8 29 -8 65 0 36 3 65 8 65 4 0 25 -12 47 -25z m773 16 c10
-6 10 -10 -3 -21 -12 -10 -19 -10 -27 -2 -27 27 -98 9 -111 -28 -5 -13 -6 -13
-6 1 -2 26 31 47 79 52 25 2 47 4 50 5 3 1 11 -2 18 -7z m-2787 -16 c0 -5 -18
-13 -41 -16 -22 -3 -40 -4 -40 -2 0 1 12 9 28 17 29 17 53 17 53 1z m2822 -63
c-9 -28 -34 -42 -73 -42 -20 0 -41 -5 -48 -12 -9 -10 -16 -8 -29 5 -20 20 -17
21 63 17 44 -1 54 2 67 21 9 12 13 27 10 32 -3 6 -1 7 5 3 6 -4 8 -14 5 -24z
m-2813 -33 c0 -18 -26 -20 -54 -5 -28 14 -28 14 -5 18 31 5 59 -2 59 -13z
m-160 1 c-8 -5 -19 -10 -25 -10 -5 0 -3 5 5 10 8 5 20 10 25 10 6 0 3 -5 -5
-10z m-3041 -452 c-1 -35 -4 -51 -6 -35 -4 23 -9 27 -38 27 -29 0 -34 -4 -38
-27 -2 -16 -4 -1 -5 32 0 39 2 51 7 35 5 -19 13 -25 31 -24 40 2 40 3 40 29 0
14 2 25 5 25 3 0 4 -28 4 -62z m339 55 c-10 -2 -18 -12 -18 -21 -1 -15 -2 -16
-13 -1 -7 9 -19 18 -27 22 -8 3 5 5 30 5 25 0 37 -2 28 -5z m-551 -35 c-3 -7
-5 -2 -5 12 0 14 2 19 5 13 2 -7 2 -19 0 -25z m390 12 c-4 -15 0 -20 13 -20
14 0 17 6 14 23 -3 12 4 5 15 -17 12 -22 21 -49 20 -60 -1 -18 -2 -17 -8 4 -6
20 -13 25 -41 25 -28 0 -35 -5 -41 -25 -7 -23 -7 -23 -8 -3 -1 21 28 93 37 93
2 0 2 -9 -1 -20z m8720 10 c-44 -8 -51 -14 -44 -35 4 -9 20 -16 44 -17 36 -1
36 -1 6 -5 -40 -5 -60 -27 -43 -47 6 -8 26 -17 43 -19 32 -4 32 -4 -4 -5 -45
-2 -59 13 -58 64 1 68 6 74 52 73 l42 -1 -38 -8z m370 -2 c-10 -8 -17 -32 -20
-63 l-3 -50 -2 57 c-2 44 -6 58 -19 61 -10 3 0 5 21 6 34 1 37 -1 23 -11z
m-514 -36 c-6 -4 -13 -23 -16 -42 -2 -23 -4 -15 -5 25 -2 56 -1 58 16 42 12
-13 14 -20 5 -25z m67 -23 c0 -61 -9 -69 -31 -27 -10 18 -9 20 5 15 13 -5 16
1 16 33 0 22 2 40 5 40 3 0 5 -27 5 -61z m340 37 c0 -3 -4 -8 -10 -11 -5 -3
-10 -1 -10 4 0 6 5 11 10 11 6 0 10 -2 10 -4z m-1565 -20 c16 -12 17 -16 6
-30 -12 -15 -314 -16 -3566 -16 -3252 0 -3554 1 -3566 16 -38 46 -204 44 3566
44 3010 0 3544 -2 3560 -14z m-7775 -25 c0 -10 -22 -31 -32 -31 -4 0 -8 11 -8
24 0 19 4 23 20 19 11 -3 20 -8 20 -12z m51 9 c5 0 9 -9 9 -20 0 -28 -14 -25
-35 7 -16 24 -16 26 0 20 9 -4 21 -7 26 -7z m8802 3 c-7 -2 -19 -2 -25 0 -7 3
-2 5 12 5 14 0 19 -2 13 -5z m491 -39 c5 -14 4 -15 -9 -4 -17 14 -19 20 -6 20
5 0 12 -7 15 -16z m-7195 -437 c18 -22 -8 -37 -65 -37 -53 0 -74 16 -51 39 15
15 102 14 116 -2z m154 -1 c9 -23 -15 -36 -64 -36 -51 0 -68 12 -49 35 16 20
106 20 113 1z m1896 1 c18 -22 -8 -37 -65 -37 -53 0 -74 16 -51 39 15 15 102
14 116 -2z m154 -1 c9 -23 -15 -36 -64 -36 -51 0 -68 12 -49 35 16 20 106 20
113 1z m256 1 c18 -22 -8 -37 -65 -37 -53 0 -74 16 -51 39 15 15 102 14 116
-2z m150 0 c17 -22 -7 -37 -60 -37 -51 0 -77 18 -57 38 16 16 103 15 117 -1z
m256 3 c13 -22 -17 -40 -66 -40 -51 0 -68 12 -49 35 14 17 105 21 115 5z m154
-3 c18 -22 -8 -37 -65 -37 -53 0 -74 16 -51 39 15 15 102 14 116 -2z m664 -1
c9 -23 -15 -36 -64 -36 -51 0 -68 12 -49 35 16 20 106 20 113 1z m156 1 c18
-22 -8 -37 -65 -37 -53 0 -74 16 -51 39 15 15 102 14 116 -2z m256 -12 c0 -17
-8 -20 -54 -23 -60 -4 -82 8 -61 33 10 12 27 15 64 13 43 -3 51 -6 51 -23z
m154 12 c17 -22 -7 -37 -60 -37 -51 0 -77 18 -57 38 16 16 103 15 117 -1z
m254 -1 c9 -23 -15 -36 -64 -36 -51 0 -68 12 -49 35 16 20 106 20 113 1z m156
1 c18 -22 -8 -37 -65 -37 -53 0 -74 16 -51 39 15 15 102 14 116 -2z m666 -12
c0 -17 -8 -20 -54 -23 -60 -4 -82 8 -61 33 10 12 27 15 64 13 43 -3 51 -6 51
-23z m154 12 c17 -22 -7 -37 -60 -37 -51 0 -77 18 -57 38 16 16 103 15 117 -1z
m-6036 -90 c-7 -50 -22 -75 -34 -55 -12 18 -11 61 1 93 8 22 13 25 24 16 10
-8 12 -25 9 -54z m150 -14 c-13 -56 -39 -51 -35 7 2 25 9 51 15 59 18 22 31
-20 20 -66z m273 -50 c-12 -100 -28 -142 -44 -116 -8 13 11 195 23 226 6 15
10 16 20 5 10 -10 10 -35 1 -115z m308 1 c-12 -107 -26 -143 -44 -114 -5 8 -8
22 -5 30 2 8 7 51 11 95 7 91 19 122 38 106 10 -8 10 -32 0 -117z m105 -2 c-6
-53 -16 -106 -22 -116 -9 -18 -10 -18 -20 -1 -12 22 9 213 26 233 22 27 29
-17 16 -116z m1235 112 c9 -23 -15 -206 -30 -228 -12 -18 -13 -17 -20 8 -6 26
10 189 22 221 8 19 20 19 28 -1z m558 -102 c-12 -105 -19 -132 -32 -132 -19 0
-21 24 -9 122 11 104 23 138 42 119 7 -7 6 -44 -1 -109z m253 -11 c-13 -102
-28 -139 -44 -113 -8 13 12 212 24 232 6 9 10 9 21 -2 11 -11 11 -31 -1 -117z
m568 116 c7 -19 -15 -210 -26 -224 -21 -28 -29 1 -23 81 11 124 32 187 49 143z
m815 -112 c-11 -97 -20 -125 -41 -125 -12 0 -1 177 15 221 9 25 13 28 23 17
11 -10 11 -34 3 -113z m411 -4 c-13 -110 -32 -157 -44 -109 -9 34 12 208 27
226 23 27 28 -15 17 -117z m407 2 c-12 -100 -28 -142 -44 -115 -8 12 13 215
24 233 4 7 11 6 19 -3 10 -10 10 -34 1 -115z m259 -2 c-13 -105 -27 -139 -45
-111 -5 8 -8 22 -5 30 2 8 7 49 11 90 3 41 11 86 16 99 7 21 11 22 22 10 11
-12 11 -32 1 -118z m407 2 c-12 -107 -23 -136 -42 -117 -7 7 -7 44 1 115 12
106 23 139 42 120 7 -7 7 -45 -1 -118z m392 49 c-14 -56 -40 -50 -36 8 2 25 9
51 15 59 18 22 32 -22 21 -67z m156 27 c0 -50 -18 -89 -31 -68 -20 32 -2 128
22 114 5 -4 9 -24 9 -46z m-4987 -105 c-26 -40 -51 -74 -55 -74 -23 0 -2 60
45 129 49 76 52 78 55 49 3 -22 -9 -49 -45 -104z m153 60 c33 -74 44 -134 24
-134 -18 0 -70 129 -70 171 0 21 3 39 6 39 3 0 21 -34 40 -76z m287 -108 c-3
-14 -9 -26 -13 -26 -4 0 -22 33 -39 73 -25 57 -30 79 -25 107 l7 35 38 -81
c24 -54 35 -90 32 -108z m171 147 c-7 -40 -90 -173 -107 -173 -20 0 4 63 53
135 28 41 53 75 56 75 3 0 2 -17 -2 -37z m-1395 -196 c18 -22 -8 -37 -65 -37
-56 0 -73 12 -54 35 16 19 103 20 119 2z m150 0 c17 -22 -7 -37 -60 -37 -51 0
-77 18 -57 38 16 16 103 15 117 -1z m670 0 c18 -22 -8 -37 -65 -37 -53 0 -74
16 -51 39 15 15 102 14 116 -2z m154 -1 c9 -23 -15 -36 -64 -36 -51 0 -68 12
-49 35 16 20 106 20 113 1z m1482 -11 c0 -17 -8 -20 -54 -23 -60 -4 -82 8 -61
33 10 12 27 15 64 13 43 -3 51 -6 51 -23z m154 12 c17 -22 -7 -37 -60 -37 -51
0 -77 18 -57 38 16 16 103 15 117 -1z m2714 -1 c9 -23 -15 -36 -64 -36 -51 0
-68 12 -49 35 16 20 106 20 113 1z m156 1 c18 -22 -8 -37 -65 -37 -53 0 -74
16 -51 39 15 15 102 14 116 -2z m-5615 -153 c-12 -107 -26 -143 -44 -114 -5 8
-8 22 -5 30 2 8 7 51 11 95 7 91 19 122 38 106 10 -8 10 -32 0 -117z m415 5
c-5 -52 -14 -102 -19 -111 -14 -24 -12 -34 2 -20 16 16 103 15 117 -1 18 -22
-8 -37 -64 -37 -49 0 -53 2 -70 34 -17 31 -17 42 -6 132 12 100 27 139 42 111
5 -8 4 -56 -2 -108z m414 108 c7 -20 -13 -199 -26 -225 -19 -40 -30 2 -22 87
10 121 31 181 48 138z m303 -114 c-12 -101 -28 -142 -45 -115 -8 13 12 212 24
232 6 9 10 9 20 -2 10 -10 10 -34 1 -115z m254 -1 c-7 -53 -17 -106 -22 -116
-10 -18 -11 -18 -20 -2 -11 20 9 215 25 234 22 28 28 -17 17 -116z m263 115
c7 -18 -12 -199 -24 -219 -13 -24 -11 -34 3 -20 15 15 100 16 116 0 21 -21 -7
-38 -64 -38 -50 0 -55 2 -70 32 -13 25 -15 47 -10 107 11 120 32 181 49 138z
m556 -115 c-6 -53 -15 -101 -20 -107 -14 -14 -11 -31 3 -17 16 16 103 15 117
-1 18 -22 -8 -37 -64 -37 -48 0 -53 2 -70 33 -16 31 -17 42 -5 133 13 104 26
138 42 109 6 -9 5 -54 -3 -113z m563 1 c-12 -109 -24 -141 -43 -113 -5 8 -7
24 -5 35 3 11 8 56 11 100 8 83 20 114 38 96 7 -7 7 -45 -1 -118z m260 115 c9
-23 -18 -218 -30 -230 -24 -24 -29 10 -16 110 6 53 15 105 19 115 8 20 21 22
27 5z m813 -117 c-13 -105 -27 -139 -45 -111 -5 8 -8 22 -5 30 2 8 7 49 11 90
4 41 11 86 16 99 8 21 11 22 22 10 11 -12 11 -32 1 -118z m418 115 c8 -20 -14
-208 -26 -223 -23 -31 -30 -11 -23 75 10 130 32 194 49 148z m401 -112 c-13
-109 -26 -142 -44 -114 -5 8 -8 22 -5 30 2 8 7 51 11 95 7 91 19 122 38 106
10 -9 10 -31 0 -117z m261 25 c-7 -100 -16 -141 -32 -146 -19 -7 -21 22 -9
123 13 104 20 129 38 118 7 -4 8 -37 3 -95z m406 -19 c-12 -112 -27 -155 -43
-126 -11 19 10 214 25 234 24 30 30 -7 18 -108z m-4658 -134 c9 -23 -15 -36
-64 -36 -51 0 -68 12 -49 35 16 20 106 20 113 1z m1226 1 c17 -22 -8 -37 -60
-37 -51 0 -68 12 -49 35 16 19 94 20 109 2z m256 -12 c0 -17 -8 -20 -54 -23
-60 -4 -82 8 -61 33 10 12 27 15 64 13 43 -3 51 -6 51 -23z m409 9 c10 -27 -3
-34 -59 -34 -57 0 -75 11 -55 35 18 21 106 20 114 -1z m155 3 c18 -22 -8 -37
-65 -37 -53 0 -74 16 -51 39 15 15 102 14 116 -2z m1480 0 c17 -22 -8 -37 -60
-37 -51 0 -68 12 -49 35 16 19 94 20 109 2z m156 -12 c0 -17 -8 -20 -54 -23
-60 -4 -82 8 -61 33 10 12 27 15 64 13 43 -3 51 -6 51 -23z m669 9 c10 -27 -3
-34 -59 -34 -57 0 -75 11 -55 35 18 21 106 20 114 -1z m155 3 c18 -22 -8 -37
-65 -37 -53 0 -74 16 -51 39 15 15 102 14 116 -2z m250 0 c17 -22 -8 -37 -60
-37 -51 0 -68 12 -49 35 16 19 94 20 109 2z m156 -12 c0 -17 -8 -20 -54 -23
-60 -4 -82 8 -61 33 10 12 27 15 64 13 43 -3 51 -6 51 -23z"/>
<path d="M2935 7250 c-17 -19 -17 -21 0 -40 15 -16 31 -20 90 -20 60 0 75 3
91 21 14 15 16 24 8 37 -9 13 -29 18 -91 20 -69 2 -82 0 -98 -18z"/>
<path d="M3175 7250 c-15 -16 -17 -25 -9 -38 9 -13 29 -18 86 -20 65 -2 77 0
93 18 15 16 17 25 9 38 -9 13 -29 18 -86 20 -65 2 -77 0 -93 -18z"/>
<path d="M6016 7251 c-14 -15 -15 -24 -6 -40 9 -19 20 -21 89 -21 64 0 81 3
95 19 15 16 15 22 4 40 -11 18 -22 21 -89 21 -62 0 -79 -3 -93 -19z"/>
<path d="M6246 7251 c-15 -16 -15 -22 -4 -40 11 -18 22 -21 89 -21 62 0 79 3
93 19 14 15 15 24 6 40 -9 19 -20 21 -89 21 -64 0 -81 -3 -95 -19z"/>
<path d="M6625 7250 c-17 -19 -17 -21 0 -40 15 -16 31 -20 90 -20 60 0 75 3
91 21 14 15 16 24 8 37 -9 13 -29 18 -91 20 -69 2 -82 0 -98 -18z"/>
<path d="M6858 7246 c-16 -22 -16 -25 1 -40 13 -11 37 -16 88 -16 60 0 73 3
91 23 22 23 22 24 4 40 -14 13 -37 17 -93 17 -66 -1 -76 -3 -91 -24z"/>
<path d="M7235 7250 c-17 -19 -17 -21 0 -40 15 -16 31 -20 90 -20 60 0 75 3
91 21 14 15 16 24 8 37 -9 13 -29 18 -91 20 -69 2 -82 0 -98 -18z"/>
<path d="M7475 7250 c-15 -16 -17 -25 -9 -38 9 -13 29 -18 86 -20 65 -2 77 0
93 18 15 16 17 25 9 38 -9 13 -29 18 -86 20 -65 2 -77 0 -93 -18z"/>
<path d="M3355 7200 c-14 -16 -23 -55 -37 -177 -17 -143 -17 -158 -3 -180 l16
-24 19 24 c14 18 23 58 35 153 18 158 19 185 2 208 -12 16 -14 16 -32 -4z"/>
<path d="M5355 7200 c-15 -16 -23 -56 -37 -178 -16 -143 -16 -159 -1 -181 l16
-24 17 23 c20 27 24 46 41 216 11 105 10 124 -3 142 l-15 22 -18 -20z"/>
<path d="M6197 7196 c-11 -16 -23 -78 -35 -180 -17 -146 -17 -156 -1 -177 l17
-23 19 32 c15 24 23 67 32 165 7 72 14 139 16 147 3 8 -4 26 -14 38 l-17 24
-17 -26z"/>
<path d="M6578 7196 c-12 -17 -22 -70 -34 -178 -15 -138 -15 -157 -2 -176 l15
-22 20 23 c16 18 23 52 37 175 16 140 16 156 1 178 -8 13 -16 24 -18 24 -1 0
-10 -11 -19 -24z"/>
<path d="M7423 7198 c-17 -19 -23 -49 -36 -178 -14 -139 -14 -157 -1 -178 l15
-23 18 23 c28 35 58 315 39 352 l-14 27 -21 -23z"/>
<path d="M2887 7193 c-10 -13 -20 -66 -32 -175 -15 -136 -15 -160 -2 -177 14
-21 14 -21 34 2 16 18 23 51 36 175 12 108 14 159 7 173 -13 24 -22 24 -43 2z"/>
<path d="M3508 7193 c-11 -13 -21 -67 -33 -175 -15 -137 -16 -159 -3 -177 l15
-21 20 23 c17 18 23 50 37 174 12 112 14 158 6 173 -13 25 -22 25 -42 3z"/>
<path d="M4231 7060 c-68 -101 -81 -127 -81 -160 0 -26 5 -40 13 -40 7 0 45
47 84 104 60 88 72 113 78 160 5 34 4 56 -2 56 -6 0 -47 -54 -92 -120z"/>
<path d="M4407 7128 c-4 -47 0 -65 41 -160 53 -121 75 -138 85 -66 5 37 -2 60
-46 160 -29 65 -57 118 -63 118 -6 0 -14 -23 -17 -52z"/>
<path d="M4788 7128 c-3 -46 2 -67 42 -158 52 -118 73 -135 84 -69 6 37 0 57
-46 161 -28 65 -57 118 -64 118 -7 0 -14 -20 -16 -52z"/>
<path d="M5078 7062 c-51 -79 -78 -131 -83 -159 -6 -38 -4 -43 12 -43 12 0 42
37 89 108 60 90 72 116 76 160 3 34 1 52 -6 52 -6 0 -45 -53 -88 -118z"/>
<path d="M2894 6829 c-32 -36 -9 -54 76 -57 64 -3 76 0 96 19 22 21 23 24 7
41 -25 28 -153 26 -179 -3z"/>
<path d="M3126 6831 c-14 -15 -15 -24 -6 -40 9 -19 20 -21 89 -21 65 0 81 3
96 20 17 19 17 21 0 40 -26 29 -153 29 -179 1z"/>
<path d="M4126 6831 c-15 -16 -15 -22 -4 -40 11 -18 22 -21 89 -21 62 0 79 3
93 19 14 15 15 24 6 40 -9 19 -20 21 -89 21 -64 0 -81 -3 -95 -19z"/>
<path d="M4356 6829 c-11 -17 -12 -25 -3 -40 17 -28 156 -28 181 0 14 15 15
24 6 40 -9 19 -20 21 -90 21 -69 0 -81 -3 -94 -21z"/>
<path d="M6585 6830 c-15 -16 -17 -25 -9 -38 9 -13 29 -18 86 -20 65 -2 77 0
93 18 15 16 17 25 9 38 -9 13 -29 18 -86 20 -65 2 -77 0 -93 -18z"/>
<path d="M6814 6829 c-14 -15 -16 -24 -8 -37 9 -13 29 -18 91 -20 69 -2 82 0
98 18 17 19 17 21 0 40 -15 16 -31 20 -90 20 -60 0 -75 -3 -91 -21z"/>
<path d="M2845 6780 c-14 -16 -23 -58 -37 -177 -17 -143 -17 -158 -3 -180 l16
-24 19 24 c15 18 23 60 36 179 15 138 16 157 2 177 l-15 21 -18 -20z"/>
<path d="M3465 6780 c-15 -16 -23 -56 -37 -178 l-17 -157 32 -47 32 -47 76 -1
c62 0 79 3 93 19 15 16 15 22 4 40 -11 18 -22 21 -89 21 -56 0 -80 -4 -89 -15
-7 -9 -15 -13 -18 -10 -3 3 2 13 12 23 12 14 21 61 33 174 15 139 15 157 1
176 l-15 22 -18 -20z"/>
<path d="M4076 6775 c-12 -18 -23 -74 -35 -180 -16 -145 -16 -155 0 -176 l17
-23 19 32 c14 23 23 68 32 159 7 71 15 137 17 148 2 11 -4 31 -14 43 l-18 24
-18 -27z"/>
<path d="M4923 6777 c-15 -20 -23 -58 -36 -178 -15 -138 -16 -155 -1 -176 l15
-24 18 23 c14 17 23 62 36 175 14 131 15 155 2 178 l-14 27 -20 -25z"/>
<path d="M5305 6774 c-11 -17 -22 -76 -34 -179 -16 -144 -16 -155 0 -176 l16
-22 18 27 c12 18 23 74 36 178 15 136 16 154 2 175 -8 13 -17 23 -18 23 -1 0
-10 -12 -20 -26z"/>
<path d="M6996 6774 c-13 -18 -23 -67 -32 -148 -7 -67 -15 -135 -18 -152 -3
-19 2 -39 14 -54 l17 -23 17 25 c10 16 22 73 31 149 18 153 19 190 2 213 -12
17 -14 16 -31 -10z"/>
<path d="M7374 6775 c-13 -20 -23 -73 -35 -179 -16 -137 -16 -153 -2 -175 l16
-24 17 24 c23 29 25 42 41 205 11 116 11 133 -3 153 l-16 23 -18 -27z"/>
<path d="M4537 6773 c-10 -13 -21 -67 -33 -174 -15 -139 -16 -158 -2 -177 l15
-22 20 23 c17 18 23 50 37 174 12 112 14 158 6 173 -13 25 -22 25 -43 3z"/>
<path d="M6148 6773 c-11 -13 -21 -67 -33 -175 -16 -139 -16 -158 -2 -178 l15
-21 19 24 c25 32 60 315 43 347 -13 25 -22 25 -42 3z"/>
<path d="M3696 6411 c-15 -16 -15 -22 -4 -40 11 -18 22 -21 89 -21 62 0 79 3
93 19 15 16 15 22 4 40 -11 18 -22 21 -89 21 -62 0 -79 -3 -93 -19z"/>
<path d="M5308 6406 c-16 -22 -16 -25 1 -40 27 -25 152 -23 175 3 14 15 15 24
6 40 -9 19 -20 21 -88 21 -69 -1 -79 -3 -94 -24z"/>
<path d="M5542 6407 c-22 -23 -22 -24 -4 -40 14 -13 37 -17 89 -17 58 0 73 4
89 21 14 15 16 24 8 37 -9 13 -29 18 -85 20 -68 2 -77 1 -97 -21z"/>
<path d="M5922 6407 c-22 -23 -22 -24 -4 -40 14 -13 37 -17 89 -17 58 0 73 4
89 21 14 15 16 24 8 37 -9 13 -29 18 -85 20 -68 2 -77 1 -97 -21z"/>
<path d="M6152 6407 c-22 -23 -22 -24 -4 -40 14 -13 37 -17 91 -17 63 0 75 3
91 23 17 20 17 24 3 40 -13 13 -32 17 -88 17 -62 0 -74 -3 -93 -23z"/>
<path d="M6536 6411 c-14 -15 -15 -24 -6 -40 9 -19 20 -21 89 -21 65 0 81 3
96 20 17 19 17 21 0 40 -26 29 -153 29 -179 1z"/>
<path d="M6766 6411 c-14 -15 -15 -24 -6 -40 9 -19 20 -21 89 -21 64 0 81 3
95 19 15 16 15 22 4 40 -11 18 -22 21 -89 21 -62 0 -79 -3 -93 -19z"/>
<path d="M3556 5261 c-14 -15 -15 -24 -6 -40 9 -19 20 -21 89 -21 65 0 81 3
96 20 17 19 17 21 0 40 -26 29 -153 29 -179 1z"/>
<path d="M3786 5261 c-15 -16 -15 -22 -4 -40 11 -18 22 -21 89 -21 62 0 79 3
93 19 15 16 15 22 4 40 -11 18 -22 21 -89 21 -62 0 -79 -3 -93 -19z"/>
<path d="M4165 5260 c-17 -19 -17 -21 0 -40 26 -29 153 -29 179 -1 14 15 15
24 6 40 -9 19 -20 21 -89 21 -65 0 -81 -3 -96 -20z"/>
<path d="M4395 5260 c-17 -19 -17 -21 0 -40 15 -16 31 -20 90 -20 60 0 75 3
91 21 14 15 16 24 8 37 -9 13 -29 18 -91 20 -69 2 -82 0 -98 -18z"/>
<path d="M3506 5211 c-13 -15 -22 -52 -32 -143 -7 -68 -15 -139 -18 -159 -2
-23 2 -43 13 -58 l17 -23 17 25 c10 16 22 74 32 154 18 157 19 184 2 207 -12
16 -14 16 -31 -3z"/>
<path d="M3967 5206 c-12 -17 -23 -77 -35 -180 -17 -144 -17 -156 -2 -176 l17
-22 19 25 c16 19 23 54 33 148 6 68 14 138 17 154 4 22 0 38 -13 54 l-19 23
-17 -26z"/>
<path d="M4348 5203 c-11 -13 -21 -66 -33 -175 -14 -136 -15 -160 -2 -178 14
-20 14 -20 34 3 16 18 23 51 36 175 12 108 14 159 7 173 -13 24 -23 24 -42 2z"/>
<path d="M3005 5073 c-58 -88 -79 -128 -83 -160 -8 -72 20 -54 98 61 59 88 71
114 76 160 4 35 3 56 -3 56 -5 0 -45 -53 -88 -117z"/>
<path d="M3178 5138 c-4 -46 2 -67 42 -158 52 -118 73 -136 84 -69 6 37 0 57
-46 160 -29 66 -58 119 -65 119 -6 0 -13 -22 -15 -52z"/>
<path d="M2896 4841 c-15 -16 -15 -22 -4 -40 11 -18 22 -21 89 -21 62 0 79 3
93 19 14 15 15 24 6 40 -9 19 -20 21 -89 21 -64 0 -81 -3 -95 -19z"/>
<path d="M3128 4836 c-16 -22 -16 -25 1 -40 13 -11 37 -16 88 -16 58 0 73 4
89 21 14 15 16 24 8 37 -9 13 -29 18 -90 19 -73 3 -80 1 -96 -21z"/>
<path d="M3506 4841 c-15 -16 -15 -22 -4 -40 11 -18 22 -21 89 -21 62 0 79 3
93 19 14 15 15 24 6 40 -9 19 -20 21 -89 21 -64 0 -81 -3 -95 -19z"/>
<path d="M3735 4840 c-17 -19 -17 -21 0 -40 26 -29 153 -29 179 -1 14 15 15
24 6 40 -9 19 -20 21 -89 21 -65 0 -81 -3 -96 -20z"/>
<path d="M2847 4785 c-12 -17 -22 -67 -34 -175 -14 -129 -15 -153 -3 -176 l14
-26 21 24 c17 20 23 49 33 149 7 68 15 138 18 154 4 21 0 38 -13 53 l-18 21
-18 -24z"/>
<path d="M3313 4788 c-17 -19 -23 -51 -38 -180 -15 -137 -16 -159 -3 -177 l15
-21 20 23 c30 32 62 311 41 351 l-14 27 -21 -23z"/>
<path d="M3458 4786 c-12 -17 -23 -71 -36 -179 -17 -143 -17 -157 -2 -177 l16
-21 18 20 c14 15 23 57 36 178 16 140 16 159 3 180 -8 13 -16 23 -17 23 0 0
-9 -11 -18 -24z"/>
<path d="M4303 4787 c-15 -19 -23 -60 -36 -178 -15 -138 -16 -155 -1 -176 l15
-24 19 24 c15 18 23 60 36 179 15 140 16 157 2 177 l-16 22 -19 -24z"/>
<path d="M3747 4764 c-20 -20 -4 -95 43 -199 27 -60 53 -111 58 -113 5 -1 12
7 16 20 14 52 5 98 -39 194 -41 92 -60 116 -78 98z"/>
</g>
</svg>
