<?xml version="1.0" standalone="no"?>
<!DOCTYPE svg PUBLIC "-//W3C//DTD SVG 20010904//EN"
 "http://www.w3.org/TR/2001/REC-SVG-20010904/DTD/svg10.dtd">
<svg version="1.0" xmlns="http://www.w3.org/2000/svg"
 width="160.000000pt" height="160.000000pt" viewBox="0 0 160.000000 160.000000"
 preserveAspectRatio="xMidYMid meet">

<g transform="translate(0.000000,160.000000) scale(0.100000,-0.100000)"
fill="#000000" stroke="none">
<path d="M0 800 l0 -800 800 0 800 0 0 800 0 800 -800 0 -800 0 0 -800z m934
745 c289 -51 527 -265 607 -550 33 -113 33 -287 1 -399 -76 -265 -284 -469
-553 -542 -88 -24 -290 -24 -378 0 -268 73 -478 278 -552 541 -33 113 -33 287
0 400 79 280 317 498 599 549 103 19 172 19 276 1z"/>
<path d="M645 1526 c-181 -42 -336 -140 -441 -279 -317 -419 -122 -1010 386
-1169 109 -33 311 -33 420 0 214 67 369 200 465 397 199 411 -16 895 -460
1035 -90 28 -281 36 -370 16z m353 -248 c9 -9 15 -9 24 0 16 16 89 15 112 -3
29 -22 4 -45 -49 -45 l-43 0 -5 -82 c-7 -100 -7 -84 -1 -189 4 -70 2 -88 -10
-98 -13 -11 -19 -11 -31 -1 -18 15 -22 169 -4 187 8 8 8 13 0 17 -6 4 -11 40
-11 87 l0 79 -44 0 c-51 0 -76 20 -56 45 15 18 101 20 118 3z m-488 -32 c10
-13 10 -78 1 -191 -1 -5 2 -29 6 -53 l8 -43 25 41 c28 46 60 54 60 15 0 -31
-63 -128 -97 -150 -41 -27 -53 -6 -53 89 0 46 5 87 11 93 8 8 8 13 0 17 -15
10 -14 169 1 184 16 16 23 15 38 -2z m268 2 c15 -15 16 -174 1 -184 -8 -4 -8
-9 0 -17 6 -6 11 -47 11 -93 0 -95 -12 -116 -53 -89 -34 22 -97 119 -97 150 0
38 31 31 60 -13 l24 -37 8 40 c5 22 8 45 8 50 -10 95 -10 178 0 191 15 17 22
18 38 2z m-264 -553 c33 -22 96 -120 96 -150 0 -38 -31 -31 -60 13 l-24 37 -7
-35 c-3 -19 -9 -42 -13 -51 -4 -10 -3 -20 3 -24 16 -10 14 -147 -3 -170 -12
-16 -16 -17 -30 -6 -12 10 -16 32 -16 95 0 46 5 87 11 93 8 8 8 13 0 17 -15
10 -14 169 1 184 15 15 14 15 42 -3z m264 3 c15 -15 16 -174 1 -184 -8 -4 -8
-9 0 -17 6 -6 11 -47 11 -93 0 -95 -12 -116 -53 -89 -34 22 -97 119 -97 150 0
38 31 31 60 -13 l24 -37 8 40 c5 22 8 45 8 50 -10 95 -10 178 0 191 15 17 22
18 38 2z m175 -63 c38 -55 50 -115 23 -115 -21 0 -86 105 -86 140 0 44 20 37
63 -25z m177 25 c0 -39 -66 -140 -91 -140 -32 0 -22 46 23 110 47 67 68 76 68
30z m-140 -201 c0 -34 -66 -139 -87 -139 -26 0 -13 60 23 115 42 62 64 71 64
24z m104 -24 c37 -56 49 -115 22 -115 -18 0 -96 120 -96 148 0 41 35 25 74
-33z"/>
</g>
</svg>
