<?xml version="1.0" standalone="no"?>
<!DOCTYPE svg PUBLIC "-//W3C//DTD SVG 20010904//EN"
 "http://www.w3.org/TR/2001/REC-SVG-20010904/DTD/svg10.dtd">
<svg version="1.0" xmlns="http://www.w3.org/2000/svg"
 width="3000.000000pt" height="3000.000000pt" viewBox="0 0 3000.000000 3000.000000"
 preserveAspectRatio="xMidYMid meet">

<g transform="translate(0.000000,3000.000000) scale(0.100000,-0.100000)"
fill="#000000" stroke="none">
<path d="M1 15007 l-4 -14994 6039 -6 c3321 -4 10072 -7 15002 -7 l8962 0 0
15000 0 15000 -14997 0 -14998 0 -4 -14993z m22012 9598 c75 -69 139 -125 144
-125 4 0 64 55 133 123 l125 122 525 -3 526 -2 164 -151 c91 -83 166 -154 168
-158 1 -4 -74 -82 -166 -174 l-168 -167 -497 0 -497 0 0 -872 0 -873 -125
-139 c-69 -76 -125 -142 -125 -146 0 -4 54 -63 120 -133 l120 -125 0 -904 0
-903 -151 -172 c-83 -95 -153 -173 -157 -173 -6 0 -161 167 -287 309 l-40 45
4 900 3 899 117 129 c64 71 116 136 116 143 0 8 -52 70 -115 137 l-115 122 -5
880 -5 881 -500 5 -501 5 -168 155 -168 155 174 167 173 167 521 1 521 0 136
-125z m-14744 -296 l161 -171 0 -904 0 -905 -120 -136 c-66 -76 -120 -141
-120 -145 0 -5 54 -66 120 -136 l119 -127 1 -485 c1 -483 1 -485 20 -461 11
13 165 233 342 490 176 256 332 481 345 499 l24 32 180 0 180 0 -6 -297 c-6
-250 -10 -302 -24 -325 -9 -14 -218 -319 -466 -677 l-450 -650 -110 -1 -110 0
-115 -135 c-63 -73 -119 -134 -125 -134 -5 1 -81 79 -167 175 l-158 174 0 898
0 897 113 126 c61 69 118 133 126 142 12 15 -1 32 -113 149 l-126 133 0 897 0
898 116 132 c105 120 195 218 200 218 1 0 74 -77 163 -171z m3190 1 l161 -169
0 -910 0 -910 -117 -131 c-65 -73 -119 -137 -121 -144 -2 -7 51 -70 118 -138
l120 -126 0 -897 0 -896 -151 -175 c-84 -96 -155 -174 -160 -174 -4 0 -64 61
-134 135 l-128 135 -101 -6 c-91 -6 -103 -5 -118 12 -9 11 -221 316 -472 679
l-456 660 0 302 0 303 178 0 177 -1 355 -519 c195 -285 358 -519 363 -519 4
-1 7 215 7 478 l0 479 120 135 c66 75 120 142 120 149 -1 7 -55 69 -120 138
l-120 125 0 901 0 902 157 176 c86 97 158 176 158 176 1 0 75 -76 164 -170z
m1320 -35 l131 -139 0 -878 0 -878 506 0 506 0 130 -122 c71 -68 135 -124 141
-126 7 -1 68 54 137 123 l125 125 502 0 503 0 0 873 0 872 156 175 c86 96 157
176 158 178 2 1 76 -75 165 -169 l161 -172 0 -911 0 -911 -120 -132 c-66 -72
-120 -137 -120 -144 0 -6 54 -67 120 -135 l120 -124 0 -898 0 -898 -156 -178
c-86 -98 -160 -174 -164 -169 -5 4 -79 85 -164 178 l-155 170 -1 873 0 872
-505 0 -505 0 -130 120 c-71 66 -136 120 -143 120 -7 0 -66 -54 -132 -120
l-120 -120 -507 0 -508 0 0 -871 0 -870 -157 -180 -156 -179 -67 72 c-36 40
-110 120 -163 178 l-97 105 0 900 1 900 125 139 126 138 -34 37 c-18 20 -75
79 -125 132 l-93 96 0 900 0 900 157 177 157 177 32 -33 c18 -18 91 -96 163
-173z m5699 -445 l2 -355 -52 -75 c-29 -41 -202 -288 -385 -548 -183 -261
-333 -476 -333 -478 0 -2 155 -4 345 -4 l344 0 123 -112 c68 -62 131 -119 140
-127 16 -12 32 0 150 113 l131 126 344 2 344 3 -385 551 -386 551 0 357 0 356
134 0 135 0 24 -32 c14 -18 226 -325 471 -682 l446 -650 0 -266 0 -265 131
-119 c72 -65 134 -128 139 -140 5 -11 61 -77 124 -145 l116 -124 0 -893 0
-893 -152 -173 c-83 -95 -155 -173 -160 -173 -5 0 -80 77 -168 170 l-159 170
-1 868 0 867 -501 0 -501 0 -66 62 c-37 34 -100 94 -140 132 l-72 71 -128
-128 -127 -127 -508 -7 -507 -6 0 -862 0 -861 -157 -179 -157 -178 -56 60
c-30 33 -103 112 -162 175 l-108 115 0 897 0 896 156 175 c85 96 160 175 165
175 5 0 52 41 104 91 l95 92 0 267 0 267 467 677 467 677 136 -3 135 -3 3
-355z m1095 -9064 c3846 -3 4841 -7 4853 -17 17 -14 10 -65 -12 -89 -13 -13
-1043 -15 -9187 -11 -8722 4 -10307 7 -10322 23 -4 3 -10 22 -15 42 -8 38 -1
50 35 58 19 5 4211 3 14648 -6z m-5562 -5143 c72 -65 134 -120 140 -121 5 -2
66 51 135 117 l125 121 532 0 532 0 168 -156 c92 -86 167 -160 165 -164 -2 -4
-78 -80 -169 -169 l-167 -161 -527 0 -528 0 -116 107 c-64 59 -125 115 -137
125 -21 19 -22 18 -153 -107 l-131 -125 -500 0 -500 0 0 -850 0 -850 188 0
c104 0 330 -3 504 -7 l314 -6 130 -118 c71 -65 134 -118 139 -119 6 0 64 54
130 120 l120 120 535 0 535 0 168 -156 c92 -86 167 -159 166 -163 0 -3 -78
-79 -172 -168 l-172 -163 -523 0 -522 0 -134 125 c-73 69 -139 125 -146 125
-6 0 -69 -56 -139 -125 l-128 -125 -496 0 -497 0 0 -850 0 -850 500 0 500 0
131 -120 c72 -66 136 -120 142 -120 7 0 66 54 132 120 l120 120 532 0 533 0
171 -157 172 -158 -174 -167 -174 -168 -525 0 -525 1 -135 124 c-74 68 -138
123 -142 122 -3 -1 -65 -57 -136 -125 l-130 -122 -524 0 -523 1 -170 156 c-93
85 -172 163 -175 173 -3 10 -58 76 -122 146 l-118 129 0 902 0 902 120 137
c66 75 120 140 120 143 0 4 -54 65 -120 136 l-120 130 0 902 0 902 132 148
c72 81 202 216 287 300 l156 152 533 1 534 0 129 -117z m8971 -8 c75 -69 140
-125 144 -125 5 0 65 56 134 123 l125 124 80 -2 c44 -1 280 -3 525 -4 l445 -1
165 -151 c91 -84 166 -155 168 -158 1 -4 -74 -82 -166 -174 l-168 -167 -497 0
-497 0 0 -842 c0 -464 -3 -859 -6 -879 -5 -27 -34 -66 -125 -168 -65 -74 -119
-137 -119 -141 0 -4 54 -63 120 -133 l120 -125 0 -904 0 -903 -151 -173 c-83
-95 -155 -172 -160 -170 -4 2 -80 82 -169 178 l-160 175 7 900 6 899 119 132
c65 72 118 135 118 140 0 5 -54 66 -120 136 l-120 126 -2 879 -3 878 -500 5
-501 5 -168 155 -168 155 173 167 174 167 521 1 520 0 136 -125z m-14760 -282
l112 -123 110 0 111 0 467 -678 468 -677 0 -298 0 -297 -182 2 -181 3 -354
510 c-194 281 -358 512 -363 513 -7 2 -10 -166 -10 -475 l0 -478 -120 -135
c-66 -74 -119 -140 -117 -147 1 -6 55 -68 120 -137 l117 -124 0 -894 0 -895
-151 -174 c-84 -96 -155 -175 -159 -177 -4 -1 -80 76 -169 172 l-161 175 0
898 0 898 111 125 c61 69 118 133 126 142 14 16 5 29 -111 149 l-126 133 0
898 0 898 156 175 c150 169 157 175 175 159 10 -9 69 -73 131 -141z m3207 -13
l161 -171 0 -909 0 -910 -97 -108 c-53 -59 -110 -121 -125 -138 l-29 -31 125
-130 126 -131 0 -896 0 -897 -152 -175 c-83 -95 -156 -174 -162 -173 -6 0 -67
61 -135 135 l-123 134 -102 -6 c-91 -6 -103 -5 -118 12 -9 11 -222 316 -472
679 l-456 659 0 303 0 303 178 0 177 -1 355 -519 c195 -286 358 -519 363 -520
4 0 7 215 7 479 l0 478 120 137 c66 76 120 141 120 147 0 5 -54 67 -120 137
l-120 127 0 901 0 901 156 177 c87 97 158 176 159 176 2 0 75 -77 164 -170z
m6558 -795 l461 -670 1 -302 1 -303 -173 0 -173 0 -417 615 -416 614 -1 153
c-1 84 -1 247 0 361 l0 208 127 -3 128 -3 462 -670z m2020 315 l2 -355 -418
-615 -418 -615 -177 -3 -176 -2 0 307 0 308 461 668 461 668 132 -3 131 -3 2
-355z m-1557 -2270 l0 -299 -462 -675 -463 -675 -132 -1 -133 0 0 353 0 352
422 623 422 622 173 0 173 0 0 -300z m1138 -325 l422 -625 0 -350 0 -350 -133
0 -132 0 -463 675 -462 675 0 300 0 300 173 0 174 0 421 -625z"/>
</g>
</svg>
