<?xml version="1.0" standalone="no"?>
<!DOCTYPE svg PUBLIC "-//W3C//DTD SVG 20010904//EN"
 "http://www.w3.org/TR/2001/REC-SVG-20010904/DTD/svg10.dtd">
<svg version="1.0" xmlns="http://www.w3.org/2000/svg"
 width="400.000000pt" height="100.000000pt" viewBox="0 0 400.000000 100.000000"
 preserveAspectRatio="xMidYMid meet">

<g transform="translate(0.000000,100.000000) scale(0.100000,-0.100000)"
fill="#000000" stroke="none">
<path d="M0 500 l0 -500 2000 0 2000 0 0 500 0 500 -2000 0 -2000 0 0 -500z
m2505 390 c0 -10 -13 -16 -42 -18 l-43 -3 -1 -67 c-1 -37 0 -95 1 -129 2 -78
-6 -109 -26 -92 -17 14 -20 134 -3 145 8 4 8 9 0 17 -6 6 -11 37 -11 69 l0 58
-34 0 c-35 0 -52 12 -41 30 3 5 49 8 103 7 79 -2 97 -5 97 -17z m-1088 -86 c1
-43 2 -95 2 -114 l2 -35 27 33 c15 18 30 32 35 32 17 0 5 -44 -23 -84 -29 -43
-54 -61 -70 -51 -9 6 -12 283 -3 298 2 4 10 6 16 4 8 -2 13 -33 14 -83z m210
-55 c2 -74 1 -144 -2 -157 -5 -21 -7 -21 -26 -9 -32 23 -78 90 -79 115 0 32
23 27 45 -10 l20 -33 3 30 c2 17 8 35 13 42 7 7 6 14 -1 18 -11 7 -14 103 -4
130 4 9 12 14 18 12 7 -2 12 -49 13 -138z m87 125 c3 -9 6 -40 6 -69 l0 -54
43 -3 c23 -2 61 -1 84 0 l42 4 3 66 c2 52 6 67 18 67 13 0 15 -23 15 -150 0
-127 -2 -150 -15 -150 -11 0 -16 15 -18 63 l-3 62 -34 0 c-19 0 -37 5 -41 11
-4 8 -9 8 -17 0 -6 -6 -26 -11 -44 -11 l-32 0 -3 -62 c-2 -48 -7 -63 -18 -63
-13 0 -15 23 -17 140 -2 77 -1 146 2 153 6 17 22 15 29 -4z m376 -25 c0 -11
-11 -37 -25 -57 l-25 -37 29 -6 c31 -7 91 0 91 10 0 3 -9 20 -20 36 -20 30
-27 75 -12 75 12 0 72 -88 72 -106 0 -8 7 -22 15 -31 22 -21 17 -148 -5 -148
-11 0 -16 15 -18 61 l-3 61 -42 5 c-23 2 -61 3 -84 0 l-43 -4 0 -58 c0 -37 -5
-62 -14 -69 -19 -16 -26 6 -26 79 0 39 5 62 15 70 8 7 15 21 15 32 0 22 56
108 70 108 6 0 10 -9 10 -21z m1170 -359 c0 -7 -487 -10 -1440 -10 -953 0
-1440 3 -1440 10 0 7 487 10 1440 10 953 0 1440 -3 1440 -10z m-1355 -90 c0
-11 -13 -15 -55 -16 -30 -1 -72 -2 -92 -3 l-38 -1 0 -60 0 -60 43 -1 c23 0 63
0 88 1 48 1 73 -15 48 -31 -20 -12 -77 -11 -85 2 -4 8 -9 8 -17 0 -6 -6 -26
-11 -44 -11 l-33 0 0 -55 0 -55 34 0 c19 0 38 -5 42 -11 4 -8 9 -8 17 0 13 13
66 14 86 2 31 -20 -3 -30 -99 -30 -86 0 -101 2 -109 18 -6 10 -10 80 -10 157
0 177 -3 173 128 171 78 -2 96 -5 96 -17z m600 0 c0 -10 -13 -16 -42 -18 l-43
-3 -1 -67 c-1 -37 0 -95 1 -129 2 -78 -6 -109 -26 -92 -17 14 -20 134 -3 145
8 4 8 9 0 17 -6 6 -11 37 -11 69 l0 58 -34 0 c-35 0 -52 12 -41 30 3 5 49 8
103 7 79 -2 97 -5 97 -17z m-1085 -13 c29 -23 70 -86 70 -106 0 -31 -22 -25
-47 12 l-23 32 -1 -40 c0 -22 -2 -74 -2 -115 -2 -59 -5 -75 -17 -75 -13 0 -15
23 -17 140 -3 171 0 182 37 152z m207 -128 c2 -74 1 -144 -2 -157 -5 -21 -7
-21 -26 -9 -32 23 -78 90 -79 115 0 32 23 27 45 -10 l20 -33 3 30 c2 17 8 35
13 42 7 7 6 14 -1 18 -11 7 -14 103 -4 130 4 9 12 14 18 12 7 -2 12 -49 13
-138z m433 79 c31 -43 39 -78 18 -78 -16 0 -68 80 -68 104 0 27 18 18 50 -26z
m130 19 c0 -25 -45 -97 -60 -97 -18 0 -10 40 16 80 30 45 44 51 44 17z m-100
-148 c0 -22 -57 -109 -72 -109 -18 0 -6 44 22 86 34 48 50 56 50 23z m74 -20
c17 -25 26 -51 24 -67 -3 -27 -4 -26 -35 17 -31 41 -44 91 -24 91 4 0 20 -18
35 -41z"/>
</g>
</svg>
